<?xml version="1.0" encoding="iso-8859-1"?>
<!-- Uploaded to: SVG Repo, www.svgrepo.com, Generator: SVG Repo Mixer Tools -->
<!DOCTYPE svg PUBLIC "-//W3C//DTD SVG 1.1//EN" "http://www.w3.org/Graphics/SVG/1.1/DTD/svg11.dtd">
<svg version="1.1" id="Capa_1" xmlns="http://www.w3.org/2000/svg" xmlns:xlink="http://www.w3.org/1999/xlink" 
	 width="800px" height="800px" viewBox="0 0 234.941 234.942"
	 xml:space="preserve">
<g>
	<g>
		<path style="fill:#030303;" d="M56.216,42.07L40.724,0H2.241v11.71h30.32l13.9,37.75L68.09,173.77H185.4l47.3-131.7H56.216z
			 M177.161,162.06H77.934L59.096,53.781h156.953L177.161,162.06z"/>
		<path style="fill:#030303;" d="M90.802,185.172c-13.717,0-24.885,11.161-24.885,24.885c0,13.723,11.167,24.885,24.885,24.885
			c13.721,0,24.885-11.162,24.885-24.885C115.687,196.333,104.522,185.172,90.802,185.172z M90.802,223.231
			c-7.265,0-13.174-5.912-13.174-13.174c0-7.263,5.91-13.175,13.174-13.175c7.268,0,13.174,5.912,13.174,13.175
			C103.976,217.319,98.069,223.231,90.802,223.231z"/>
		<path style="fill:#030303;" d="M155.209,185.172c-13.723,0-24.885,11.161-24.885,24.885c0,13.723,11.162,24.885,24.885,24.885
			c13.724,0,24.886-11.162,24.886-24.885C180.095,196.333,168.933,185.172,155.209,185.172z M155.209,223.231
			c-7.262,0-13.174-5.912-13.174-13.174c0-7.263,5.912-13.175,13.174-13.175c7.263,0,13.175,5.912,13.175,13.175
			C168.384,217.319,162.472,223.231,155.209,223.231z"/>
	</g>
</g>
</svg>